# Video formats and hardware acceleration
:toc:
:toclevels: 5

## The environment we have to work with
### Raspberry pi
According to a https://www.raspberrypi.org/forums/viewtopic.php?t=268356[raspberry pi developer]:
____
Pi0-3 have hardware accelerated decode for H264, MPEG4, H263, and through optional codec licences for MPEG2 and VC1.

Pi4 has the same hardware accelerated decode for H264, but not the other codecs. It also has a separate block for HEVC.
____

HEVC is also known as https://en.wikipedia.org/wiki/High_Efficiency_Video_Coding[H265].

### youtube / youtube-dl
Youtube does not encode videos with https://www.reddit.com/r/youtubedl/comments/k2qgsp/x265_content_via_youtubedl/[HEVC / H265]. Thus, if we want a hardware decode for video direct from youtube on the pi4, we must use H264. H264 is also known as https://en.wikipedia.org/wiki/Advanced_Video_Coding[AVC1]. To download the best quality H264 video from youtube via youtube-dl, pass a format string: `-f 'bestvideo[vcodec^=avc1]'`.

Note that sometimes the best quality video option is not available in H264. For example:
....
% youtube-dl -F https://www.youtube.com/watch\?v\=1lyu1KKwC74
...
format code  extension  resolution note
249          webm       audio only tiny   51k , opus @ 50k (48000Hz), 1.57MiB
250          webm       audio only tiny   68k , opus @ 70k (48000Hz), 2.10MiB
140          m4a        audio only tiny  128k , m4a_dash container, mp4a.40.2@128k (44100Hz), 4.17MiB
251          webm       audio only tiny  134k , opus @160k (48000Hz), 4.19MiB
394          mp4        256x144    144p   82k , av01.0.00M.08, 25fps, video only, 2.37MiB
278          webm       256x144    144p   90k , webm container, vp9, 25fps, video only, 2.83MiB
160          mp4        256x144    144p  113k , avc1.4d400c, 25fps, video only, 3.64MiB
395          mp4        426x240    240p  174k , av01.0.00M.08, 25fps, video only, 5.00MiB
242          webm       426x240    240p  195k , vp9, 25fps, video only, 6.07MiB
133          mp4        426x240    240p  255k , avc1.4d4015, 25fps, video only, 8.07MiB
396          mp4        640x360    360p  366k , av01.0.01M.08, 25fps, video only, 10.08MiB
243          webm       640x360    360p  411k , vp9, 25fps, video only, 12.78MiB
134          mp4        640x360    360p  633k , avc1.4d401e, 25fps, video only, 19.24MiB
397          mp4        854x480    480p  656k , av01.0.04M.08, 25fps, video only, 17.81MiB
244          webm       854x480    480p  762k , vp9, 25fps, video only, 22.66MiB
135          mp4        854x480    480p 1187k , avc1.4d401e, 25fps, video only, 36.29MiB
398          mp4        1280x720   720p 1228k , av01.0.05M.08, 25fps, video only, 32.54MiB
247          webm       1280x720   720p 1523k , vp9, 25fps, video only, 43.33MiB
399          mp4        1920x1080  1080p 2114k , av01.0.08M.08, 25fps, video only, 56.20MiB
136          mp4        1280x720   720p 2403k , avc1.4d401f, 25fps, video only, 70.45MiB
248          webm       1920x1080  1080p 2684k , vp9, 25fps, video only, 79.74MiB
137          mp4        1920x1080  1080p 4513k , avc1.640028, 25fps, video only, 140.40MiB
400          mp4        2560x1440  1440p 7644k , av01.0.12M.08, 25fps, video only, 201.37MiB
271          webm       2560x1440  1440p 8969k , vp9, 25fps, video only, 269.54MiB
401          mp4        3840x2160  2160p 17119k , av01.0.12M.08, 25fps, video only, 432.08MiB
313          webm       3840x2160  2160p 17888k , vp9, 25fps, video only, 577.87MiB
18           mp4        640x360    360p  722k , avc1.42001E, 25fps, mp4a.40.2@ 96k (44100Hz), 23.71MiB (best)
....

## What about transcoding?
I attempted to transcode a 1920x1080 webm vp9 encoded video with ffmpeg on a pi4.

Converting to h264 was quite slow, `speed=0.189x`:
....
ffmpeg -i Verve248.webm -vcodec libx264 -c:a aac -f matroska verve_to_h264.mkv
....

Converting to h265 was even slower, `speed=0.0198x`:
....
ffmpeg -i Verve248.webm -vcodec libx265 -c:a aac -f matroska verve_to_h265.mkv
....

Thus, transcoding does not seem like a viable option, given it's slowness. A https://www.raspberrypi.org/forums/viewtopic.php?t=243873[raspberry pi engineer confirms] that the pi 4 only supports hardware accelerated h265 decode. Encoding h265 will not be hardware accelerated.

## Video resolution
### Best hardware decoded video resolution
So we now know that H264 and H265 are the only game in town for hardware accelerated video playback on the pi 4. What resolutions are supported? And can we playback two videos, one through each of the two hdmi outputs?

In the https://www.raspberrypi.org/products/raspberry-pi-4-model-b/specifications/[raspberry pi 4 model b specifications], it states:
____
H.265 (4kp60 decode), H264 (1080p60 decode, 1080p30 encode)
____

Given that we want to stream videos from youtube, the best we can hope to use is H264 1080p. Would it be possible to play two h264 1080p videos over both HDMI outputs?

First we download a 1080p h264 video:
....
% yt_url="https://www.youtube.com/watch?v=ucZl6vQ_8Uo" ; ffmpeg  -i <(youtube-dl $yt_url -f 'bestvideo[vcodec^=avc1][height=1080]' -o -) -i <(youtube-dl $yt_url -f 'bestaudio' -o -) -c:v copy -c:a aac -f matroska sync_test_1080p.mkv
....


Confirm it has the desired properties (1080p, h264):
....
% ffprobe sync_test_1080p.mkv
...
    Stream #0:0: Video: h264 (High), yuv420p(tv, bt709, progressive), 1920x1080 [SAR 1:1 DAR 16:9], 30 fps, 30 tbr, 1k tbn, 60 tbc (default)
...
....

Try to play it over both HDMI outputs (https://gist.github.com/dasl-/80cd06fb24aeeb7b87edb0782a77e604[full output]):
....
% cat sync_test_1080p.mkv | tee >(cvlc --mmal-display hdmi-1 - ) >(cvlc --mmal-display hdmi-2 - ) >/dev/null
...
[b284db90] mmal_codec decoder error: MMAL error 2 "ENOSPC"
....
Googling this error suggests a lack of gpu memory.

We get the similar failures using `omxplayer`:
....
% cat sync_test_1080p.mkv | tee >(omxplayer --display 2 --no-keys pipe:0 - ) >(omxplayer --display 7 --no-keys pipe:0 - ) >/dev/null
...
COMXAudio::Decode timeout
...
....


A raspberry pi developer has https://www.raspberrypi.org/forums/viewtopic.php?t=260599#p1590911[more details] about the hardware decode capabilities. https://www.raspberrypi.org/forums/viewtopic.php?t=260599#p1587437[He suggestes] that making use of the https://www.raspberrypi.org/documentation/configuration/config-txt/memory.md[`gpu_mem` config option] may help.

Increasing `gpu_mem` to `128` allows the dual 1080p videos to begin playing in either vlc or omxplayer, but they quickly stall out and being to stutter, dropping frames. Trying values of `256` or `512` does not make this any better.

Although playing two 1080p videos does not work, playing a single 1080p video works, as does playing two 720p videos. This holds for both vlc and omxplayer. We can do both of these without modifying the default `gpu_mem` value.

### Best software decoded video resolution
We know that when playing two h264 videos via hardware decode, we are limited to a maximum resolution of 720p. Can we do any better via software decode? (Note: omxplayer does not support software decode, so we only test with vlc in this section)

Using 1080p vp9, which will be software decoded by default:
....
% yt_url="https://www.youtube.com/watch?v=CcazSboibcA" ; ffmpeg  -i <(youtube-dl $yt_url -f '248' -o -) -i <(youtube-dl $yt_url -f 'bestaudio' -o -) -c:v copy -c:a aac -f matroska pet_fox_248_1080p.mkv
% ffprobe pet_fox_248_1080p.mkv
...
    Stream #0:0(eng): Video: vp9 (Profile 0), yuv420p(tv, bt709), 1920x1080, SAR 1:1 DAR 16:9, 29.97 fps, 29.97 tbr, 1k tbn, 1k tbc (default)
...
% cat pet_fox_248_1080p.mkv | tee >(cvlc - --mmal-display hdmi-1 ) >(cvlc - --mmal-display hdmi-2 ) > /dev/null
....

Using 1080p h264, which we can force to be software decoded via `--codec avcodec`:
....
% yt_url="https://www.youtube.com/watch?v=CcazSboibcA" ; ffmpeg  -i <(youtube-dl $yt_url -f '137' -o -) -i <(youtube-dl $yt_url -f 'bestaudio' -o -) -c:v copy -c:a aac -f matroska pet_fox_137_1080p.mkv
% ffprobe pet_fox_137_1080p.mkv
...
    Stream #0:0: Video: h264 (High), yuv420p(tv, bt709, progressive), 1920x1080 [SAR 1:1 DAR 16:9], 29.97 fps, 29.97 tbr, 1k tbn, 59.94 tbc (default)
...
% cat pet_fox_137_1080p.mkv | tee >(cvlc - --mmal-display hdmi-1 --codec avcodec) >(cvlc - --mmal-display hdmi-2 --codec avcodec) > /dev/null
....

Both of these are little bit finnicky, but they kinda work most of the time! It uses ~200-400% CPU though, depending on the complexity of the part of the video that is being played. Since we can come very close to maxing out the pi's CPU, I'd be worried about finding the occasional complex video that stresses the CPU too much and starts dropping frames. Once we add cropping of the video later, this CPU usage will only get worse. Furthermore, the audio / video synchronization often seems very slightly off in both of these examples.

We came close to doing two 1080p videos via software decode, but occasional lags / frame drops would likely prevent us from seriously considering this option. If doing further testing of software decode, remember to test on a variety of videos. Some "simple" videos perform fine.
